<svg width="141" height="28" viewBox="0 0 141 28" fill="none" xmlns="http://www.w3.org/2000/svg">
<path d="M31.86 6.804L26.712 27H18.792L15.984 14.76L13.068 27H5.184L0.072 6.804H7.092L9.36 20.196L12.348 6.804H19.908L23.004 20.232L25.236 6.804H31.86ZM32.7156 16.884C32.7156 14.796 33.0876 12.972 33.8316 11.412C34.5996 9.852 35.6316 8.652 36.9276 7.812C38.2476 6.972 39.7116 6.552 41.3196 6.552C42.7116 6.552 43.9116 6.828 44.9196 7.38C45.9276 7.932 46.7076 8.676 47.2596 9.612V6.804H54.3156V27H47.2596V24.192C46.7076 25.128 45.9156 25.872 44.8836 26.424C43.8756 26.976 42.6876 27.252 41.3196 27.252C39.7116 27.252 38.2476 26.832 36.9276 25.992C35.6316 25.152 34.5996 23.952 33.8316 22.392C33.0876 20.808 32.7156 18.972 32.7156 16.884ZM47.2596 16.884C47.2596 15.588 46.8996 14.568 46.1796 13.824C45.4836 13.08 44.6196 12.708 43.5876 12.708C42.5316 12.708 41.6556 13.08 40.9596 13.824C40.2636 14.544 39.9156 15.564 39.9156 16.884C39.9156 18.18 40.2636 19.212 40.9596 19.98C41.6556 20.724 42.5316 21.096 43.5876 21.096C44.6196 21.096 45.4836 20.724 46.1796 19.98C46.8996 19.236 47.2596 18.204 47.2596 16.884ZM70.2523 20.988V27H67.1923C62.0323 27 59.4523 24.444 59.4523 19.332V12.672H56.9683V6.804H59.4523V1.908H66.5443V6.804H70.2163V12.672H66.5443V19.44C66.5443 19.992 66.6643 20.388 66.9043 20.628C67.1683 20.868 67.6003 20.988 68.2003 20.988H70.2523ZM72.3367 16.884C72.3367 14.796 72.7687 12.972 73.6327 11.412C74.4967 9.852 75.6967 8.652 77.2327 7.812C78.7927 6.972 80.5687 6.552 82.5607 6.552C85.1287 6.552 87.2887 7.26 89.0407 8.676C90.7927 10.068 91.9207 12.024 92.4247 14.544H84.9367C84.5047 13.224 83.6647 12.564 82.4167 12.564C81.5287 12.564 80.8207 12.936 80.2927 13.68C79.7887 14.4 79.5367 15.468 79.5367 16.884C79.5367 18.3 79.7887 19.38 80.2927 20.124C80.8207 20.868 81.5287 21.24 82.4167 21.24C83.6887 21.24 84.5287 20.58 84.9367 19.26H92.4247C91.9207 21.756 90.7927 23.712 89.0407 25.128C87.2887 26.544 85.1287 27.252 82.5607 27.252C80.5687 27.252 78.7927 26.832 77.2327 25.992C75.6967 25.152 74.4967 23.952 73.6327 22.392C72.7687 20.832 72.3367 18.996 72.3367 16.884ZM108.64 6.624C110.944 6.624 112.768 7.404 114.112 8.964C115.48 10.5 116.164 12.588 116.164 15.228V27H109.108V16.164C109.108 15.012 108.808 14.112 108.208 13.464C107.608 12.792 106.804 12.456 105.796 12.456C104.74 12.456 103.912 12.792 103.312 13.464C102.712 14.112 102.412 15.012 102.412 16.164V27H95.3558V0.36H102.412V9.684C103.036 8.772 103.876 8.04 104.932 7.488C106.012 6.912 107.248 6.624 108.64 6.624ZM118.884 16.884C118.884 14.796 119.256 12.972 120 11.412C120.768 9.852 121.812 8.652 123.132 7.812C124.452 6.972 125.916 6.552 127.524 6.552C128.82 6.552 129.972 6.828 130.98 7.38C132.012 7.908 132.816 8.64 133.392 9.576V0.36H140.484V27H133.392V24.192C132.84 25.128 132.06 25.872 131.052 26.424C130.044 26.976 128.856 27.252 127.488 27.252C125.88 27.252 124.416 26.832 123.096 25.992C121.8 25.152 120.768 23.952 120 22.392C119.256 20.808 118.884 18.972 118.884 16.884ZM133.428 16.884C133.428 15.588 133.068 14.568 132.348 13.824C131.652 13.08 130.788 12.708 129.756 12.708C128.7 12.708 127.824 13.08 127.128 13.824C126.432 14.544 126.084 15.564 126.084 16.884C126.084 18.18 126.432 19.212 127.128 19.98C127.824 20.724 128.7 21.096 129.756 21.096C130.788 21.096 131.652 20.724 132.348 19.98C133.068 19.236 133.428 18.204 133.428 16.884Z" fill="url(#paint0_linear_34_4)" style="mix-blend-mode:exclusion"/>
<defs>
<linearGradient id="paint0_linear_34_4" x1="-5.32716e-07" y1="14" x2="143" y2="14" gradientUnits="userSpaceOnUse">
<stop stop-color="#C03BFF"/>
<stop offset="1" stop-color="#00CCFF"/>
</linearGradient>
</defs>
</svg>
