<svg width="121" height="61" viewBox="0 0 121 61" fill="none" xmlns="http://www.w3.org/2000/svg">
<path d="M70.8 15.12L59.36 60H41.76L35.52 32.8L29.04 60H11.52L0.16 15.12H15.76L20.8 44.88L27.44 15.12H44.24L51.12 44.96L56.08 15.12H70.8ZM72.7013 37.52C72.7013 32.88 73.5279 28.8267 75.1813 25.36C76.8879 21.8933 79.2079 19.2267 82.1413 17.36C85.0746 15.4933 88.3279 14.56 91.9012 14.56C94.7813 14.56 97.3413 15.1733 99.5813 16.4C101.875 17.5733 103.661 19.2 104.941 21.28V0.799999H120.701V60H104.941V53.76C103.715 55.84 101.981 57.4933 99.7413 58.72C97.5013 59.9467 94.8613 60.56 91.8213 60.56C88.2479 60.56 84.9946 59.6267 82.0613 57.76C79.1813 55.8933 76.8879 53.2267 75.1813 49.76C73.5279 46.24 72.7013 42.16 72.7013 37.52ZM105.021 37.52C105.021 34.64 104.221 32.3733 102.621 30.72C101.075 29.0667 99.1546 28.24 96.8613 28.24C94.5146 28.24 92.5679 29.0667 91.0213 30.72C89.4746 32.32 88.7013 34.5867 88.7013 37.52C88.7013 40.4 89.4746 42.6933 91.0213 44.4C92.5679 46.0533 94.5146 46.88 96.8613 46.88C99.1546 46.88 101.075 46.0533 102.621 44.4C104.221 42.7467 105.021 40.4533 105.021 37.52Z" fill="url(#paint0_linear_43_3)" style="mix-blend-mode:exclusion"/>
<defs>
<linearGradient id="paint0_linear_43_3" x1="-4.69387e-07" y1="32" x2="126" y2="32" gradientUnits="userSpaceOnUse">
<stop stop-color="#C03BFF"/>
<stop offset="1" stop-color="#00CCFF"/>
</linearGradient>
</defs>
</svg>
